<?xml version="1.0" encoding="UTF-8" standalone="no"?>
<!-- Created with Inkscape (http://www.inkscape.org/) -->

<svg
   version="1.1"
   id="svg1"
   width="16"
   height="16"
   viewBox="0 0 16 16"
   sodipodi:docname="status-kitchen-symbolic.svg"
   inkscape:version="1.4.2 (ebf0e940d0, 2025-05-08)"
   xmlns:inkscape="http://www.inkscape.org/namespaces/inkscape"
   xmlns:sodipodi="http://sodipodi.sourceforge.net/DTD/sodipodi-0.dtd"
   xmlns="http://www.w3.org/2000/svg"
   xmlns:svg="http://www.w3.org/2000/svg">
  <sodipodi:namedview
     id="namedview1"
     pagecolor="#ffffff"
     bordercolor="#000000"
     borderopacity="0.25"
     inkscape:showpageshadow="2"
     inkscape:pageopacity="0.0"
     inkscape:pagecheckerboard="0"
     inkscape:deskcolor="#d1d1d1"
     showguides="true"
     inkscape:zoom="35.054213"
     inkscape:cx="7.9163094"
     inkscape:cy="8.0161548"
     inkscape:window-width="1536"
     inkscape:window-height="891"
     inkscape:window-x="0"
     inkscape:window-y="0"
     inkscape:window-maximized="1"
     inkscape:current-layer="svg1">
    <sodipodi:guide
       position="1.0083711,18.540707"
       orientation="1,0"
       id="guide1"
       inkscape:locked="false" />
    <sodipodi:guide
       position="14.987165,19.297682"
       orientation="1,0"
       id="guide2"
       inkscape:locked="false" />
    <sodipodi:guide
       position="6.6865179,14.972574"
       orientation="0,-1"
       id="guide3"
       inkscape:locked="false" />
    <sodipodi:guide
       position="6.0545726,1.0119435"
       orientation="0,-1"
       id="guide4"
       inkscape:locked="false" />
  </sodipodi:namedview>
  <defs
     id="defs1" />
  <g
     id="g1"
     transform="matrix(0.02254959,0,0,0.02254959,-4.4238702,-2.9181217)">
    <path
       style="fill:currentColor"
       d="m 338.47023,763.32497 c -35.29506,-4.32177 -62.48626,-17.58915 -78.37955,-38.24367 -4.50118,-5.84962 -10.89167,-16.86977 -12.04377,-20.76903 -0.59371,-2.00938 -0.31794,-1.96655 5.64957,0.87761 18.64678,8.88718 53.42187,9.16899 94.27375,0.76398 108.96656,-22.41917 241.48994,-87.90764 303.52635,-149.99223 14.37212,-14.38329 21.25182,-23.67137 26.58374,-35.88994 3.16852,-7.26096 3.22782,-7.3236 4.73344,-5 2.12168,3.27437 5.27209,12.05316 7.30404,20.35308 2.66327,10.8787 2.20807,30.29289 -1.00136,42.70781 -5.07353,19.62572 -16.53724,37.73046 -36.61922,57.83306 -15.03272,15.04815 -28.69454,26.10145 -49.32316,39.90563 -63.19609,42.28933 -145.29544,75.34411 -211.20383,85.03474 -13.33342,1.96043 -45.40284,3.41043 -53.5,2.41896 z m -61.5,-64.50935 c -14.78099,-2.13157 -27.81514,-8.40909 -33.00275,-15.89482 -13.27602,-19.15729 11.88142,-49.8288 76.00275,-92.66123 76.41833,-51.04671 182.98682,-96.18116 256.95693,-108.82776 48.54962,-8.30048 82.6457,-3.55143 91.13235,12.6933 1.8525,3.54598 1.80049,13.44348 -0.0989,18.82703 -4.36883,12.38259 -24.7672,35.75435 -45.49034,52.12129 -69.29497,54.72849 -178.94964,105.3891 -272.1829,125.74885 -7.52559,1.6434 -16.51279,3.30816 -19.97155,3.69947 l -6.28865,0.71148 6.97155,-6.24388 c 50.79777,-45.4957 158.85297,-101.4995 255.47151,-132.40805 11.275,-3.6069 24.4375,-7.53543 29.25,-8.73005 6.23842,-1.54859 8.75,-2.61099 8.75,-3.70124 0,-1.32227 -1.65758,-1.44655 -12.25,-0.91842 -80.67739,4.02251 -241.71375,80.43491 -306.4787,145.42538 l -11.2287,11.2678 -5.7713,-0.12194 c -3.17421,-0.0671 -8.4713,-0.51131 -11.7713,-0.98721 z M 695.37008,510.70706 c -2.32019,-3.45526 -8.05573,-11.42167 -12.74565,-17.70313 l -8.52711,-11.42085 3.41927,-2.57915 c 1.8806,-1.41854 5.22701,-4.18675 7.43646,-6.15159 2.20945,-1.96483 8.29218,-6.97448 13.51718,-11.13254 5.225,-4.15807 13.325,-10.66075 18,-14.45039 4.675,-3.78964 15.7,-12.71723 24.5,-19.83908 8.8,-7.12185 23.43097,-19.03658 32.51326,-26.47719 40.34974,-33.05625 42.39787,-34.60948 48.24214,-36.58513 18.37963,-6.21323 38.2952,5.1958 39.55859,22.66192 0.56045,7.74812 -1.22177,13.84296 -5.51427,18.85779 -3.45969,4.04187 -6.57456,6.31865 -49.79972,36.40064 -23.86549,16.60888 -31.43805,21.8946 -57.5,40.13555 -18.32394,12.82505 -30.6433,21.5173 -41.19081,29.06325 l -7.69081,5.50219 z m -354.89985,-5.80835 c -8.6858,-1.11838 -13.84234,-2.82626 -23.5,-7.78335 -15.96278,-8.19341 -28.3419,-22.92984 -34.18152,-40.69059 -2.21906,-6.74909 -2.63237,-9.79818 -2.64328,-19.5 -0.0196,-17.45649 3.83096,-29.35135 13.78114,-42.57136 5.88792,-7.82281 15.58458,-15.69529 25.04366,-20.33233 9.81036,-4.80925 17.56349,-6.40829 31,-6.3936 10.31117,0.0113 13.19625,0.39784 20.5,2.74668 8.33144,2.67934 19.34422,8.8007 25.70332,14.28697 4.16707,3.59511 12.98025,14.74101 15.40302,19.47997 1.04498,2.04399 3.0757,7.81518 4.51272,12.82488 2.37218,8.26984 2.56864,10.27566 2.13366,21.78367 -0.5534,14.6405 -2.55999,22.20426 -8.4704,31.92882 -8.90349,14.64913 -20.87113,24.68358 -36.03948,30.21784 -10.1732,3.71175 -23.26161,5.28758 -33.24284,4.0024 z m -2.82375,-46.68943 11.8616,-11.7155 11.74609,11.7155 c 10.7944,10.76627 12.04872,11.71549 15.48108,11.71549 4.84761,0 7.73498,-2.80211 7.73498,-7.50658 0,-3.1531 -1.22734,-4.72842 -12.17534,-15.62725 l -12.17534,-12.12066 12.17534,-11.97787 c 10.66407,-10.4911 12.17534,-12.3855 12.17534,-15.26197 0,-4.19705 -2.60894,-7.32741 -6.7786,-8.13338 -3.13032,-0.60507 -3.84344,-0.0753 -15.76793,11.71348 l -12.48932,12.34721 -11.73208,-11.58219 c -6.45264,-6.37021 -12.50689,-11.84864 -13.45389,-12.17429 -2.40351,-0.82652 -7.62519,1.16912 -8.79929,3.36294 -2.60996,4.87677 -1.40181,7.00775 11.04905,19.48856 l 12.02793,12.05689 -12.02793,12.18143 c -13.10549,13.27274 -14.09978,15.33005 -9.95536,20.59882 1.55041,1.97102 2.97574,2.63486 5.65733,2.63486 3.23403,0 4.74525,-1.1462 15.44634,-11.71549 z m 162.85893,-9.21877 c -3.48919,-6.51961 2.00615,-26.54475 10.78663,-39.30675 4.5651,-6.63515 16.6284,-17.72449 19.31156,-17.7524 1.37614,-0.0143 1.7159,4.60047 0.69339,9.41793 -1.51541,7.13967 -5.77454,15.14044 -12.62404,23.71426 -5.93824,7.43314 -11.6875,16.63911 -14.12104,22.61122 -1.51732,3.72363 -2.57396,4.0672 -4.0465,1.31574 z m 19.45174,-4.31574 c 1.21163,-6.09723 6.66868,-15.81997 11.84507,-21.10415 9.51659,-9.71475 23.71077,-14.08566 24.47096,-7.5355 0.3818,3.28986 -2.74466,7.08393 -12.16447,14.76198 -9.00735,7.34186 -22.64372,17.12767 -23.86713,17.12767 -0.51534,0 -0.6422,-1.44959 -0.28443,-3.25 z m 68.81741,-34.706 c -1.75761,-1.07168 -3.94813,-3.09693 -4.86782,-4.50055 -3.8218,-5.83281 -3.24201,-7.29028 25.59098,-64.32974 14.93352,-29.54254 28.3008,-54.93045 29.70507,-56.41757 7.22954,-7.6561 18.8143,-7.49649 25.87917,0.35654 1.16146,1.29103 14.32396,26.47855 29.25,55.97228 20.86559,41.23019 27.13827,54.47431 27.13827,57.29966 0,4.86033 -2.36139,9.21524 -6.29855,11.61586 -3.08132,1.8788 -5.45288,1.95204 -63.20145,1.95204 -57.71158,0 -60.12188,-0.0743 -63.19567,-1.94852 z m 66.45201,-18.1089 c 3.91053,-1.36322 5.87783,-5.73269 4.59498,-10.20571 -2.38044,-8.30013 -15.35132,-6.61758 -15.35132,1.99134 0,4.27206 1.49372,7.13542 4.31537,8.27229 2.90168,1.16911 2.9216,1.16893 6.44097,-0.0579 z m 2.15419,-23.84563 c 4.72733,-4.72733 8.05607,-41.1429 4.45463,-48.73239 -3.18042,-6.70223 -11.10638,-8.34549 -16.59938,-3.44148 l -3.26578,2.9156 -0.33306,12.0542 c -0.20868,7.55256 0.26988,16.2668 1.28146,23.3344 1.38713,9.69153 1.97003,11.59708 4.13882,13.5302 3.09312,2.757 7.75256,2.91022 10.32331,0.33947 z m -157.41053,-20.0309 c -33.28356,-5.4716 -58.43776,-33.2941 -60.17529,-66.55857 -0.67772,-12.97468 1.20951,-21.89467 7.26662,-34.34578 8.04147,-16.5302 23.6269,-29.84991 41.90867,-35.81622 6.83614,-2.231 9.89128,-2.62735 21,-2.72441 11.03931,-0.0965 14.13116,0.23961 20.5,2.22827 11.08777,3.46214 20.18229,8.62648 28.09878,15.95594 14.07942,13.03538 21.25987,27.91587 22.53576,46.7022 0.89059,13.11321 -1.28168,23.38385 -7.68361,36.32858 -8.82712,17.84848 -23.35859,29.96178 -43.2527,36.05505 -7.66331,2.34716 -22.60468,3.42326 -30.19823,2.17494 z m 10,-42.41703 c 3.3,-3.40973 12.3,-13.13564 20,-21.61313 7.7,-8.4775 16.5875,-18.26092 19.75,-21.74095 6.40945,-7.05298 7.19457,-10.18127 3.67742,-14.6526 -1.52577,-1.9397 -2.98568,-2.63486 -5.53351,-2.63486 -3.88625,0 -6.18913,2.23173 -33.375,32.34378 L 500.185,293.11234 487.06421,280.01855 c -12.04677,-12.02197 -13.42072,-13.09378 -16.78481,-13.09378 -5.73678,0 -9.5589,6.02588 -6.86024,10.81574 1.83386,3.25494 31.78998,33.15285 34.15676,34.09039 3.76474,1.49132 5.96361,0.37992 12.39431,-6.26459 z m -130.2486,32.82042 c 0.87398,-7.75398 6.10468,-16.85318 12.97469,-22.57045 6.78592,-5.64731 9.36254,-6.89151 14.27162,-6.89151 7.87396,0 4.19713,8.76683 -8.26812,19.71407 -8.18244,7.18599 -17.4978,14.28593 -18.74362,14.28593 -0.41034,0 -0.5159,-2.04212 -0.23457,-4.53804 z m -20.8735,0.28804 c -0.41628,-1.2375 -0.7161,-4.78452 -0.66626,-7.88226 0.1965,-12.214 9.98509,-25.85245 18.56311,-25.864 6.82063,-0.009 4.79165,9.61856 -4.4248,20.99626 -2.45039,3.025 -5.97034,7.6375 -7.82212,10.25 -1.85178,2.6125 -3.71026,4.75 -4.12996,4.75 -0.4197,0 -1.10369,-1.0125 -1.51997,-2.25 z"
       id="path1" />
  </g>
</svg>
