<?xml version="1.0" encoding="utf-8" ?><svg xmlns="http://www.w3.org/2000/svg" xmlns:xlink="http://www.w3.org/1999/xlink" width="1024" height="1024" viewBox="0 0 1024 1024"><path fill="#35384A" d="M612.258 390.06C628.282 385.381 650.676 385.869 666.723 390.299C676.035 392.87 694.38 399.961 701.697 406.238L702.87 406.879C703.693 407.483 707.726 410.537 708.35 410.858C723.038 410.328 746.115 409.604 759.513 416.807C761.289 418.41 771.312 422.827 773.591 422.682C775.839 423.69 777.426 424.475 779.577 425.673C785.505 429.147 791.271 432.888 796.859 436.885C812.097 448.332 821.196 464.428 825.485 482.777C827.113 488.794 828.667 494.517 830.012 500.608C832.588 508.567 834.606 521.743 836.273 530.294C844.161 570.766 845.856 617.044 825.604 654.698C784.168 731.74 676.958 782.335 597.554 808.08C532.131 829.293 452.707 843.697 384.461 833.962C376.558 832.834 363.247 830.785 355.749 828.458C354.499 828.42 348.572 826.79 347.252 826.426C325.99 820.605 305.543 812.135 286.392 801.215C284.401 800.082 277.85 796.291 276.434 794.87C270.545 792.225 254.866 780.139 249.89 775.982C219.226 750.366 196.927 718.511 183.118 681.064C179.699 671.793 175.607 660.38 174.892 650.409C174.617 648.612 174.381 646.81 174.183 645.003C172.28 626.172 178.949 599.57 190.768 584.914C194.72 576.846 210.169 559.751 216.971 553.419L211.995 551.059L212.235 550.403C214.392 551.328 214.73 551.524 216.763 550.625C216.915 551.632 216.674 551.245 217.415 551.828C221.835 549.811 228.352 543.326 232.148 539.9C232.524 539.561 232.995 537.658 233.128 537.065L235.836 538.447C238.981 535.321 245.552 530.525 249.239 527.77C263.922 516.786 279.273 506.724 295.204 497.644C364.275 457.792 439.768 430.293 518.289 416.385C537.939 412.759 555.8 411.364 574.687 408.325C586.491 399.555 597.508 392.954 612.258 390.06Z"/><defs><linearGradient id="gradient_0" gradientUnits="userSpaceOnUse" x1="464.93173" y1="858.54694" x2="585.53851" y2="430.96808"><stop offset="0" stop-color="#2A2D3E"/><stop offset="1" stop-color="#4B4E61"/></linearGradient></defs><path fill="url(#gradient_0)" d="M708.35 410.858C723.038 410.328 746.115 409.604 759.513 416.807C761.289 418.41 771.312 422.827 773.591 422.682C775.839 423.69 777.426 424.475 779.577 425.673C785.505 429.147 791.271 432.888 796.859 436.885C812.097 448.332 821.196 464.428 825.485 482.777C827.113 488.794 828.667 494.517 830.012 500.608C832.588 508.567 834.606 521.743 836.273 530.294C844.161 570.766 845.856 617.044 825.604 654.698C784.168 731.74 676.958 782.335 597.554 808.08C532.131 829.293 452.707 843.697 384.461 833.962C376.558 832.834 363.247 830.785 355.749 828.458C354.499 828.42 348.572 826.79 347.252 826.426C325.99 820.605 305.543 812.135 286.392 801.215C284.401 800.082 277.85 796.291 276.434 794.87C270.545 792.225 254.866 780.139 249.89 775.982C219.226 750.366 196.927 718.511 183.118 681.064C179.699 671.793 175.607 660.38 174.892 650.409C174.617 648.612 174.381 646.81 174.183 645.003C172.28 626.172 178.949 599.57 190.768 584.914C194.72 576.846 210.169 559.751 216.971 553.419L211.995 551.059L212.235 550.403C214.392 551.328 214.73 551.524 216.763 550.625C216.915 551.632 216.674 551.245 217.415 551.828C221.835 549.811 228.352 543.326 232.148 539.9C232.524 539.561 232.995 537.658 233.128 537.065L235.836 538.447C238.983 541.443 242.724 544.523 246.07 547.669C242.501 551.64 234.765 556.238 230.768 561.003L229.649 561.712C216.08 575.931 204.899 587.381 197.275 605.72C183.607 638.598 198.671 668.743 229.517 683.907C232.116 685.185 235.079 686.949 237.798 687.86L239.489 687.428C241.858 687.976 249.19 690.713 252.195 691.684C251.975 692.85 252.19 692.515 251.56 693.4C258.554 696.907 273.556 700.2 281.562 701.761C346.147 714.354 413.891 707.001 477.714 693.595C489.194 691.183 505.942 688.165 516.519 684.274C531.283 681.313 563.996 670.508 578.606 665.207C587.709 662.444 599.06 657.722 608.044 654.226C664.342 632.314 752.248 588.434 787.402 538.066C788.503 536.739 789.262 535.446 790.177 533.995C790.104 532.443 790.123 532.308 789.711 530.829C781.097 524.24 771.089 519.04 761.753 513.454C755.446 509.68 748.666 505.193 742.134 502.123C741.376 503.965 740.892 505.756 739.337 506.933C739.938 504.555 740.47 502.161 740.933 499.753C746.614 470.594 739.417 449.881 723.458 426.154C722.419 425.282 722.489 425.176 721.887 423.924C720.49 422.833 714.474 416.276 712.939 414.685C711.549 414.302 709.502 411.986 708.35 410.858Z"/><defs><linearGradient id="gradient_1" gradientUnits="userSpaceOnUse" x1="439.6412" y1="444.30231" x2="566.53076" y2="700.66736"><stop offset="0" stop-color="#B9B8BB"/><stop offset="1" stop-color="#EEEEEF"/></linearGradient></defs><path fill="url(#gradient_1)" d="M708.35 410.858C723.038 410.328 746.115 409.604 759.513 416.807C761.289 418.41 771.312 422.827 773.591 422.682C775.839 423.69 777.426 424.475 779.577 425.673C785.505 429.147 791.271 432.888 796.859 436.885C812.097 448.332 821.196 464.428 825.485 482.777C827.113 488.794 828.667 494.517 830.012 500.608L829.814 502.065C829.032 499.99 829.69 500.511 828.245 499.681C826.394 500.121 827.015 499.617 826.094 500.923C826.35 502.867 825.998 502.005 827.247 503.578L828.283 503.788L829.294 502.684L829.678 503.387L828.917 504.58C827.91 504.789 827.411 504.879 826.39 504.97C824.35 508.498 823.952 519.837 821.505 522.296L820.867 522.416C819.11 526.205 817.348 530.699 815.79 534.616C809.143 547.493 801.669 558.894 791.427 569.215C789.98 570.673 788.028 572.675 786.755 574.248L785.987 574.876C782.149 578.044 777.575 582.701 773.699 586.2C767.164 592.026 760.35 597.532 753.282 602.699C750.826 604.509 732.216 616.995 731.301 618.158C729.173 619.466 716.867 627.266 715.617 627.689C712.467 628.061 693.462 639.077 688.481 641.613C679.626 646.052 670.695 650.336 661.691 654.464C656.482 656.799 648.121 660.128 643.301 662.764C629.729 668.447 615.992 673.729 602.108 678.602L602.631 679.695C575.576 691.372 542.338 700.839 513.916 708.709C507.555 710.47 492.72 714.373 486.861 715.125C482.159 715.46 480.57 715.386 476.23 714.082C474.161 714.419 465.294 715.896 463.592 716.598L464.057 717.725C461.532 720.265 438.873 725.113 433.773 726.354L434.523 726.518C425.018 728.831 398.67 730.969 388.493 731.627C374.116 731.481 357.779 733.832 343.113 732.5L336.828 732.583C321.073 731.826 309.923 730.648 294.355 728.817C292.322 727.793 274.995 725.091 270.595 723.841C265.23 722.735 258.667 720.822 253.499 719.147C248.066 717.88 239.343 714.266 234.007 712.195C227.174 709.379 221.323 706.245 214.84 702.754C190.871 686.893 182.957 678.175 174.892 650.409C174.617 648.612 174.381 646.81 174.183 645.003C172.28 626.172 178.949 599.57 190.768 584.914C194.72 576.846 210.169 559.751 216.971 553.419L211.995 551.059L212.235 550.403C214.392 551.328 214.73 551.524 216.763 550.625C216.915 551.632 216.674 551.245 217.415 551.828C221.835 549.811 228.352 543.326 232.148 539.9C232.524 539.561 232.995 537.658 233.128 537.065L235.836 538.447C238.983 541.443 242.724 544.523 246.07 547.669C242.501 551.64 234.765 556.238 230.768 561.003L229.649 561.712C216.08 575.931 204.899 587.381 197.275 605.72C183.607 638.598 198.671 668.743 229.517 683.907C232.116 685.185 235.079 686.949 237.798 687.86L239.489 687.428C241.858 687.976 249.19 690.713 252.195 691.684C251.975 692.85 252.19 692.515 251.56 693.4C258.554 696.907 273.556 700.2 281.562 701.761C346.147 714.354 413.891 707.001 477.714 693.595C489.194 691.183 505.942 688.165 516.519 684.274C531.283 681.313 563.996 670.508 578.606 665.207C587.709 662.444 599.06 657.722 608.044 654.226C664.342 632.314 752.248 588.434 787.402 538.066C788.503 536.739 789.262 535.446 790.177 533.995C790.104 532.443 790.123 532.308 789.711 530.829C781.097 524.24 771.089 519.04 761.753 513.454C755.446 509.68 748.666 505.193 742.134 502.123C741.376 503.965 740.892 505.756 739.337 506.933C739.938 504.555 740.47 502.161 740.933 499.753C746.614 470.594 739.417 449.881 723.458 426.154C722.419 425.282 722.489 425.176 721.887 423.924C720.49 422.833 714.474 416.276 712.939 414.685C711.549 414.302 709.502 411.986 708.35 410.858Z"/><path fill="#171A27" d="M723.458 426.154C763.524 434.51 814.44 453.728 803.737 504.392C801.496 514.997 796.47 525.233 790.177 533.995C790.104 532.443 790.123 532.308 789.711 530.829C781.097 524.24 771.089 519.04 761.753 513.454C755.446 509.68 748.666 505.193 742.134 502.123C741.376 503.965 740.892 505.756 739.337 506.933C739.938 504.555 740.47 502.161 740.933 499.753C746.614 470.594 739.417 449.881 723.458 426.154Z"/><defs><linearGradient id="gradient_2" gradientUnits="userSpaceOnUse" x1="394.74783" y1="711.43628" x2="392.59381" y2="735.85907"><stop offset="0" stop-color="#6D6A71"/><stop offset="1" stop-color="#96969C"/></linearGradient></defs><path fill="url(#gradient_2)" d="M334.667 727.456C380.912 727.825 417.782 725.257 463.592 716.598L464.057 717.725C461.532 720.265 438.873 725.113 433.773 726.354L434.523 726.518C425.018 728.831 398.67 730.969 388.493 731.627C374.116 731.481 357.779 733.832 343.113 732.5L343.381 731.949L342.983 731.38C338.037 731.268 329.363 730.469 325.079 727.995C325.991 727.659 332.558 727.659 334.667 727.456Z"/><path fill="#F8F8F8" d="M233.128 537.065L235.836 538.447C238.983 541.443 242.724 544.523 246.07 547.669C242.501 551.64 234.765 556.238 230.768 561.003L229.649 561.712C228.072 558.672 222.179 556.123 218.966 555.103C218.37 554.913 217.768 554.738 217.162 554.579C209.569 562.435 197.362 575.268 191.939 584.808L191.193 585.116L190.768 584.914C194.72 576.846 210.169 559.751 216.971 553.419L211.995 551.059L212.235 550.403C214.392 551.328 214.73 551.524 216.763 550.625C216.915 551.632 216.674 551.245 217.415 551.828C221.835 549.811 228.352 543.326 232.148 539.9C232.524 539.561 232.995 537.658 233.128 537.065Z"/><defs><linearGradient id="gradient_3" gradientUnits="userSpaceOnUse" x1="551.38782" y1="692.96307" x2="552.50031" y2="696.91589"><stop offset="0" stop-color="#57545B"/><stop offset="1" stop-color="#7B7B83"/></linearGradient></defs><path fill="url(#gradient_3)" d="M498.448 709.115C520.451 704.008 542.258 698.09 563.824 691.374C576.521 687.357 589.497 682.386 602.108 678.602L602.631 679.695C575.576 691.372 542.338 700.839 513.916 708.709C507.555 710.47 492.72 714.373 486.861 715.125C490.886 712.389 497.021 712.695 501.487 710.04C500.638 709.122 500.045 709.353 498.448 709.115Z"/><defs><linearGradient id="gradient_4" gradientUnits="userSpaceOnUse" x1="319.46234" y1="720.09106" x2="311.24066" y2="737.05316"><stop offset="0" stop-color="#999699"/><stop offset="1" stop-color="#B1B2B5"/></linearGradient></defs><path fill="url(#gradient_4)" d="M271.213 721.57C272.078 719.505 272.13 719.079 273.643 717.522C272.992 719.364 271.943 721.325 272.227 723.002C273.862 724.339 288.403 727.346 289.785 726.738L288.34 724.905C288.624 723.755 288.63 723.778 289.226 722.748C287.62 721.694 276.879 720.374 276.24 719.604C278.49 718.659 292.304 722.917 295.841 723.537C305.09 725.156 313.965 725.915 323.321 726.59C326.135 726.793 332.354 726.997 334.667 727.456C332.558 727.659 325.991 727.659 325.079 727.995C329.363 730.469 338.037 731.268 342.983 731.38L343.381 731.949L343.113 732.5L336.828 732.583C321.073 731.826 309.923 730.648 294.355 728.817C292.322 727.793 274.995 725.091 270.595 723.841C271.327 722.594 271.104 723.12 271.213 721.57Z"/><path fill="#0A0B0E" d="M825.485 482.777C827.113 488.794 828.667 494.517 830.012 500.608L829.814 502.065C829.032 499.99 829.69 500.511 828.245 499.681C826.394 500.121 827.015 499.617 826.094 500.923C826.35 502.867 825.998 502.005 827.247 503.578L828.283 503.788L829.294 502.684L829.678 503.387L828.917 504.58C827.91 504.789 827.411 504.879 826.39 504.97C824.35 508.498 823.952 519.837 821.505 522.296L820.867 522.416C825.823 505.825 826.596 499.691 825.485 482.777Z"/><path fill="#54586B" d="M476.23 714.082C483.583 712.579 491.118 710.789 498.448 709.115C500.045 709.353 500.638 709.122 501.487 710.04C497.021 712.695 490.886 712.389 486.861 715.125C482.159 715.46 480.57 715.386 476.23 714.082Z"/><path fill="#F8F8F8" d="M253.792 716.698L254.322 716.424C256.121 718.145 268.129 720.975 271.213 721.57C271.104 723.12 271.327 722.594 270.595 723.841C265.23 722.735 258.667 720.822 253.499 719.147L251.881 717.808L253.792 716.698Z"/><path fill="#B9B8BD" d="M234.007 712.195L235.943 711.916L236.244 711.177L235.876 710.741C240.407 711.471 248.055 715.267 253.792 716.698L251.881 717.808L253.499 719.147C248.066 717.88 239.343 714.266 234.007 712.195Z"/><path fill="#35384A" d="M239.489 687.428C241.858 687.976 249.19 690.713 252.195 691.684C251.975 692.85 252.19 692.515 251.56 693.4C246.635 691.575 242.617 690.025 237.798 687.86L239.489 687.428Z"/><path fill="#B9B8BD" d="M712.939 414.685C716.777 416.151 721.164 419.68 721.887 423.924C720.49 422.833 714.474 416.276 712.939 414.685Z"/><path fill="#171A27" d="M830.012 500.608C832.588 508.567 834.606 521.743 836.273 530.294C844.161 570.766 845.856 617.044 825.604 654.698C784.168 731.74 676.958 782.335 597.554 808.08C532.131 829.293 452.707 843.697 384.461 833.962C376.558 832.834 363.247 830.785 355.749 828.458C359.434 827.946 381.33 833.109 387.256 833.496C393.163 833.882 402.547 835.14 408.715 835.783C413.33 836.265 412.242 835.041 415.319 834.836C418.095 834.651 421.143 835.044 424.565 834.735C423.654 831.449 419.876 830.96 418.788 829.42C415.028 824.101 415.626 819.315 407.951 818.38C406.825 818.242 406.489 817.111 406.048 816.074C395.729 814.96 383.068 815.682 372.433 814.277C369.93 813.947 365.403 813.983 363.175 813.272C364.335 812.885 380.56 814.364 383.265 814.498C400.685 815.352 418.14 815.263 435.551 814.234C442.601 813.822 449.683 812.362 456.719 811.808C535.163 805.455 613.106 779.573 683.395 744.641C743.165 714.118 808.524 674.241 834.95 609.228C836.676 604.981 838.873 591.963 839.376 586.954C839.857 582.164 836.82 576.711 839.268 570.54C837.847 566.617 836.997 559.504 836.967 555.212C837.087 552.323 838.469 549.017 838.009 546.18C835.622 531.487 832.342 516.698 829.814 502.065L830.012 500.608Z"/><path fill="#54586B" d="M174.892 650.409C182.957 678.175 190.871 686.893 214.84 702.754C212.059 702.583 210.802 701.463 208.088 702.102L208.593 702.553C211.78 705.355 218.264 709.166 220.228 712.222C234.386 734.255 245.671 758.04 262.078 778.642C263.388 780.286 267.665 784.767 266.992 786.747C270.845 790.196 275.26 791.128 276.434 794.87C270.545 792.225 254.866 780.139 249.89 775.982C219.226 750.366 196.927 718.511 183.118 681.064C179.699 671.793 175.607 660.38 174.892 650.409Z"/><path fill="#0A0B0E" d="M174.892 650.409C182.957 678.175 190.871 686.893 214.84 702.754C212.059 702.583 210.802 701.463 208.088 702.102C196.784 691.287 188.512 685.185 180.919 670.854C182.676 678.043 188.744 690.546 191.768 697.449C207.344 733.007 234.718 764.666 266.992 786.747C270.845 790.196 275.26 791.128 276.434 794.87C270.545 792.225 254.866 780.139 249.89 775.982C219.226 750.366 196.927 718.511 183.118 681.064C179.699 671.793 175.607 660.38 174.892 650.409Z"/><path fill="#B9B8BD" d="M643.301 662.764C648.121 660.128 656.482 656.799 661.691 654.464C670.695 650.336 679.626 646.052 688.481 641.613C693.462 639.077 712.467 628.061 715.617 627.689C709.796 632.485 685.343 645.227 677.893 648.907C610.771 682.019 539.65 706.313 466.298 721.185C460.567 722.35 439.509 726.51 434.523 726.518L433.773 726.354C438.873 725.113 461.532 720.265 464.057 717.725L463.592 716.598C465.294 715.896 474.161 714.419 476.23 714.082C480.57 715.386 482.159 715.46 486.861 715.125C492.72 714.373 507.555 710.47 513.916 708.709C542.338 700.839 575.576 691.372 602.631 679.695L602.108 678.602C615.992 673.729 629.729 668.447 643.301 662.764Z"/><path fill="#35384A" d="M643.301 662.764C641.183 665.771 608.438 677.549 602.631 679.695L602.108 678.602C615.992 673.729 629.729 668.447 643.301 662.764Z"/><path fill="#0A0B0E" d="M731.301 618.158C731.076 619.606 730.785 620.317 729.531 621.213C721.214 627.159 712.041 632.075 703.273 637.225C668.683 657.543 631.526 672.481 594.343 687.215C586.806 690.202 577.987 692.406 570.371 695.44C568.278 696.274 566.408 695.631 565.128 695.852C563.71 696.097 558.532 698.768 557.008 699.509L557.296 699.475C551.755 701.493 545.983 702.154 540.137 703.792C531.785 706.133 523.506 708.182 515.821 712.52C514.485 713.273 508.832 712.537 507.055 712.868C500.181 714.963 493.329 716.939 486.547 719.322C483.57 720.368 478.263 719.48 475.271 720.204C460.471 723.781 446.26 725.883 431.152 727.482C418.153 728.857 401.401 732.731 388.493 731.627C398.67 730.969 425.018 728.831 434.523 726.518C439.509 726.51 460.567 722.35 466.298 721.185C539.65 706.313 610.771 682.019 677.893 648.907C685.343 645.227 709.796 632.485 715.617 627.689C716.867 627.266 729.173 619.466 731.301 618.158Z"/><path fill="#171A27" d="M815.79 534.616C817.286 539.217 808.49 549.904 805.833 554.363C803.282 558.643 791.037 573.122 786.755 574.248C788.028 572.675 789.98 570.673 791.427 569.215C801.669 558.894 809.143 547.493 815.79 534.616Z"/><path fill="#35384A" d="M294.355 728.817C309.923 730.648 321.073 731.826 336.828 732.583C331.078 734.709 300.225 732.129 293.774 729.282L294.355 728.817Z"/><defs><linearGradient id="gradient_5" gradientUnits="userSpaceOnUse" x1="439.5206" y1="607.64764" x2="322.15829" y2="478.65253"><stop offset="0" stop-color="#1F2132"/><stop offset="1" stop-color="#434659"/></linearGradient></defs><path fill="url(#gradient_5)" d="M235.836 538.447C238.981 535.321 245.552 530.525 249.239 527.77C263.922 516.786 279.273 506.724 295.204 497.644C364.275 457.792 439.768 430.293 518.289 416.385C537.939 412.759 555.8 411.364 574.687 408.325C569.972 412.768 564.712 417.749 560.426 422.61C544.072 442.899 537.082 464.281 539.826 490.432C540.759 498.62 542.647 506.669 545.454 514.417L546.193 516.358C547.474 522.437 549.456 524.422 551.692 529.657C548.931 527.514 550.268 525.815 547.8 524.64C546.081 525.188 545.891 525.586 544.694 526.904L544.503 524.956C542.627 524.312 534.298 525.45 531.801 525.897C486.383 534.043 440.498 552.195 398.897 572.006C395.048 573.839 374.523 583.875 372.883 585.947L372.571 585.858C369.631 587.131 360.769 591.682 358.459 593.613C355.932 592.19 352.601 589.405 350.43 587.484L350.12 587.394C345.749 589.807 330.86 597.903 328.25 601.085C328.21 601.523 328.093 602.511 328.105 602.912C322.819 601.247 319.705 601.476 316.016 605.754C316.602 610.071 317.449 611.545 319.647 615.312C317.732 618.195 307.214 624.534 303.459 627.507C284.838 642.247 265.317 660.269 255.269 682.178C254.303 684.285 252.128 689.533 252.195 691.684C249.19 690.713 241.858 687.976 239.489 687.428L237.798 687.86C235.079 686.949 232.116 685.185 229.517 683.907C198.671 668.743 183.607 638.598 197.275 605.72C204.899 587.381 216.08 575.931 229.649 561.712L230.768 561.003C234.765 556.238 242.501 551.64 246.07 547.669C242.724 544.523 238.983 541.443 235.836 538.447Z"/><defs><linearGradient id="gradient_6" gradientUnits="userSpaceOnUse" x1="416.91821" y1="498.25809" x2="389.44995" y2="447.2092"><stop offset="0" stop-color="#A09CA0"/><stop offset="1" stop-color="#BABDC2"/></linearGradient></defs><path fill="url(#gradient_6)" d="M235.836 538.447C238.981 535.321 245.552 530.525 249.239 527.77C263.922 516.786 279.273 506.724 295.204 497.644C364.275 457.792 439.768 430.293 518.289 416.385C537.939 412.759 555.8 411.364 574.687 408.325C569.972 412.768 564.712 417.749 560.426 422.61C546.161 423.684 531.061 426.326 517.028 428.877C441.908 442.68 369.769 469.472 303.85 508.049C290.12 516.147 276.787 524.901 263.898 534.279C260.395 536.839 248.835 546.498 246.284 547.852L246.07 547.669C242.724 544.523 238.983 541.443 235.836 538.447Z"/><defs><linearGradient id="gradient_7" gradientUnits="userSpaceOnUse" x1="468.48099" y1="569.4115" x2="447.034" y2="532.49878"><stop offset="0" stop-color="#47495C"/><stop offset="1" stop-color="#6E7082"/></linearGradient></defs><path fill="url(#gradient_7)" d="M545.454 514.417L546.193 516.358C547.474 522.437 549.456 524.422 551.692 529.657C548.931 527.514 550.268 525.815 547.8 524.64C546.081 525.188 545.891 525.586 544.694 526.904L544.503 524.956C542.627 524.312 534.298 525.45 531.801 525.897C486.383 534.043 440.498 552.195 398.897 572.006C395.048 573.839 374.523 583.875 372.883 585.947L372.571 585.858C370.491 583.843 367.623 581.577 365.358 579.504C369.507 576.712 383.556 569.853 388.437 567.343C428.206 546.891 469.814 529.903 513.529 520.048C522.984 517.917 535.786 515.14 545.454 514.417Z"/><path fill="#54586B" d="M239.489 687.428C250.626 656.682 268.866 640.913 294.376 621.832C298.707 618.592 310.425 610.163 314.914 608.001L315.858 608.272L316.016 605.754C316.602 610.071 317.449 611.545 319.647 615.312C317.732 618.195 307.214 624.534 303.459 627.507C284.838 642.247 265.317 660.269 255.269 682.178C254.303 684.285 252.128 689.533 252.195 691.684C249.19 690.713 241.858 687.976 239.489 687.428Z"/><defs><linearGradient id="gradient_8" gradientUnits="userSpaceOnUse" x1="352.16064" y1="585.07947" x2="325.2254" y2="536.4892"><stop offset="0" stop-color="#9797A0"/><stop offset="1" stop-color="#C6C5C9"/></linearGradient></defs><path fill="url(#gradient_8)" d="M320.044 538.726C323.182 537.038 326.108 535.834 329.755 536.904C331.752 537.504 333.513 538.709 334.795 540.352C337.495 543.851 339.703 550.008 342.206 553.854C348.68 563.799 356.379 571.397 364.973 579.392L365.358 579.504C367.623 581.577 370.491 583.843 372.571 585.858C369.631 587.131 360.769 591.682 358.459 593.613C355.932 592.19 352.601 589.405 350.43 587.484L350.12 587.394C336.891 575.957 323.151 564.868 317.392 547.678C316.865 543.448 317.174 541.883 320.044 538.726Z"/><path fill="#B9B8BD" d="M364.973 579.392L365.358 579.504C367.623 581.577 370.491 583.843 372.571 585.858C369.631 587.131 360.769 591.682 358.459 593.613C355.932 592.19 352.601 589.405 350.43 587.484C354.316 584.56 360.562 581.391 364.973 579.392Z"/><path fill="#B9B8BD" d="M320.044 538.726L321.027 540.262C320.098 543.096 318.841 545.089 317.392 547.678C316.865 543.448 317.174 541.883 320.044 538.726Z"/><defs><linearGradient id="gradient_9" gradientUnits="userSpaceOnUse" x1="270.37985" y1="585.17133" x2="245.53491" y2="548.97601"><stop offset="0" stop-color="#AAA9B2"/><stop offset="1" stop-color="#CACACC"/></linearGradient></defs><path fill="url(#gradient_9)" d="M246.07 547.669L246.284 547.852C254.018 556.142 273.805 568.019 283.979 573.408L284.577 574.668C281.186 577.865 276.493 579.307 274.811 582.967C257.298 575.751 247.204 569.682 230.768 561.003C234.765 556.238 242.501 551.64 246.07 547.669Z"/><defs><linearGradient id="gradient_10" gradientUnits="userSpaceOnUse" x1="311.85202" y1="595.80963" x2="281.33188" y2="573.51605"><stop offset="0" stop-color="#54576B"/><stop offset="1" stop-color="#A9A9B0"/></linearGradient></defs><path fill="url(#gradient_10)" d="M283.979 573.408C297.937 580.244 307.141 583.4 322.416 585.666C320.245 586.558 315.91 584.149 315.261 586.464C312.419 596.589 328.716 589.148 332.446 592.522C330.154 593.531 327.424 592.39 324.34 592.525C307.085 593.282 291.791 589.587 275.685 583.309L274.811 582.967C276.493 579.307 281.186 577.865 284.577 574.668L283.979 573.408Z"/><defs><linearGradient id="gradient_11" gradientUnits="userSpaceOnUse" x1="387.3139" y1="531.54163" x2="386.71194" y2="485.43848"><stop offset="0" stop-color="#FFCE74"/><stop offset="1" stop-color="#FFFFB5"/></linearGradient></defs><path fill="url(#gradient_11)" d="M358.639 507.069C368.343 472.081 413.59 482.036 415.114 510.425C415.33 511.823 415.321 512.978 415.238 514.368C413.245 547.72 362.057 549.037 358.501 515.756C358.174 512.703 358.406 510.106 358.639 507.069Z"/><defs><linearGradient id="gradient_12" gradientUnits="userSpaceOnUse" x1="381.56931" y1="538.70135" x2="385.83417" y2="516.0531"><stop offset="0" stop-color="#F6965B"/><stop offset="1" stop-color="#FFB167"/></linearGradient></defs><path fill="url(#gradient_12)" d="M415.114 510.425C415.33 511.823 415.321 512.978 415.238 514.368C413.245 547.72 362.057 549.037 358.501 515.756C358.174 512.703 358.406 510.106 358.639 507.069C361.419 515.762 366.594 526.79 375.334 530.181C393.096 537.074 406.289 529.732 412.433 512.97C412.707 514.892 411.766 517.299 411.079 519.162L412.647 519.681L410.905 520.262C411.111 521.12 411.012 521.164 411.464 521.858L412.592 521.673C414.35 518.145 414.556 514.278 415.114 510.425Z"/><path fill="#FFD76F" d="M471.387 464.772C473.4 469.146 473.325 472.416 476.642 478.21C482.485 488.414 490.875 489.917 501.462 492.934C481.905 497.549 475.779 504.581 472.277 523.928C467.117 505.272 461.047 499.407 441.966 495.53C459.822 489.244 468.354 485.898 471.387 464.772Z"/><defs><linearGradient id="gradient_13" gradientUnits="userSpaceOnUse" x1="653.15088" y1="574.42902" x2="628.58344" y2="388.84143"><stop offset="0" stop-color="#F27876"/><stop offset="1" stop-color="#FFC8C4"/></linearGradient></defs><path fill="url(#gradient_13)" d="M612.258 390.06C628.282 385.381 650.676 385.869 666.723 390.299C676.035 392.87 694.38 399.961 701.697 406.238L702.87 406.879C703.693 407.483 707.726 410.537 708.35 410.858C709.502 411.986 711.549 414.302 712.939 414.685C714.474 416.276 720.49 422.833 721.887 423.924C722.489 425.176 722.419 425.282 723.458 426.154C739.417 449.881 746.614 470.594 740.933 499.753C740.47 502.161 739.938 504.555 739.337 506.933L738.588 508.828C732.463 526.349 725.597 538.935 711.415 551.569C709.48 553.293 704.579 557.378 702.429 558.622C696.138 563.384 691.681 564.396 686.512 567.716C653.501 581.389 627.299 580.346 594.589 567.77C591.379 565.704 586.123 563.346 582.255 560.906C569.653 552.954 559.771 542.085 551.692 529.657C549.456 524.422 547.474 522.437 546.193 516.358L545.454 514.417C542.647 506.669 540.759 498.62 539.826 490.432C537.082 464.281 544.072 442.899 560.426 422.61C564.712 417.749 569.972 412.768 574.687 408.325C586.491 399.555 597.508 392.954 612.258 390.06Z"/><path fill="#FECCC8" d="M612.258 390.06C628.282 385.381 650.676 385.869 666.723 390.299C676.035 392.87 694.38 399.961 701.697 406.238C683.026 409.12 652.205 393.189 631.706 394.774C626.91 395.144 608.931 397.723 606.195 396.002L606.017 395.06C607.529 392.936 610.116 392.486 612.258 390.06Z"/><path fill="#D95651" d="M546.193 516.358C549.113 521.192 552.019 525.66 554.566 530.929C558.851 539.794 567.383 547.348 574.537 553.988C576.702 555.998 579.599 559.161 582.625 558.066C581.629 557.316 580.627 556.575 579.62 555.841L579.594 555.446C585.066 557.882 588.708 560.642 593.71 563.052C619.646 575.546 645.274 575.647 673.035 571.648C681.583 570.416 697.626 559.164 702.429 558.622C696.138 563.384 691.681 564.396 686.512 567.716C653.501 581.389 627.299 580.346 594.589 567.77C591.379 565.704 586.123 563.346 582.255 560.906C569.653 552.954 559.771 542.085 551.692 529.657C549.456 524.422 547.474 522.437 546.193 516.358Z"/><path fill="#F8F8F8" d="M591.879 430.372C592.409 425.418 593.356 420.984 597.683 417.994C609.048 410.141 615.695 410.137 624.039 421.343C630.891 430.545 637.152 441.177 644.435 449.399C648.91 446.699 657.069 441.209 660.799 438.453C675.314 427.728 684.094 423.069 694.414 441.448C696.403 444.991 696.079 446.165 695.849 450.075L696.507 450.461C694.52 458.038 672.766 469.616 665.627 475.755C670.084 481.545 674.458 487.552 678.726 493.481C680.654 496.159 687.523 503.668 687.373 506.609C690.685 512.806 691.036 515.058 688.248 521.376L688.579 521.794C688.058 523.142 687.732 523.316 686.77 524.226C667.287 542.642 661.728 528.95 649.864 512.396C646.754 508.058 641.16 499.3 637.231 494.825L636.779 494.318C629.419 500.007 611.166 512.527 603.087 516.971C601.568 516.954 597.937 516.967 596.631 516.562C589.746 514.429 582.777 504.272 581.039 497.529C581.377 495.284 581.395 494.654 582.249 492.601L583.16 492.569C584.089 491.324 584.459 490.455 585.132 489.081L584.855 488.604C587.89 484.913 609.654 470.373 615.012 466.741C611.543 461.053 593.88 438.556 594.132 434.892L591.879 430.372Z"/><path fill="#D95651" d="M581.039 497.529C581.377 495.284 581.395 494.654 582.249 492.601L583.16 492.569C582.27 495.272 581.59 498.453 583.303 501.099C590.112 511.619 595.033 521.749 608.882 512.516C618.387 506.178 627.887 499.567 637.225 492.94L637.627 493.403C643.152 499.895 649.198 509.732 654.366 516.914C666.028 533.121 669.195 538.142 686.247 523.253C686.938 522.653 687.606 522.027 688.248 521.376L688.579 521.794C688.058 523.142 687.732 523.316 686.77 524.226C667.287 542.642 661.728 528.95 649.864 512.396C646.754 508.058 641.16 499.3 637.231 494.825L636.779 494.318C629.419 500.007 611.166 512.527 603.087 516.971C601.568 516.954 597.937 516.967 596.631 516.562C589.746 514.429 582.777 504.272 581.039 497.529Z"/><path fill="#D95651" d="M695.849 450.075L696.507 450.461C694.52 458.038 672.766 469.616 665.627 475.755C670.084 481.545 674.458 487.552 678.726 493.481C680.654 496.159 687.523 503.668 687.373 506.609C681.088 497.163 671.584 485.743 664.567 475.443C672.639 467.948 691.893 459.022 695.849 450.075Z"/><path fill="#D95651" d="M615.012 466.741C611.543 461.053 593.88 438.556 594.132 434.892C600.124 443.996 611.724 458.415 616.258 466.709C614.182 468.353 585.772 488.808 585.132 489.081L584.855 488.604C587.89 484.913 609.654 470.373 615.012 466.741Z"/><defs><linearGradient id="gradient_14" gradientUnits="userSpaceOnUse" x1="456.1489" y1="643.89801" x2="398.19879" y2="595.00464"><stop offset="0" stop-color="#57596F"/><stop offset="1" stop-color="#8B8C95"/></linearGradient></defs><path fill="url(#gradient_14)" d="M390.927 599.33C396.334 601.966 401.738 605.759 406.906 608.405C432.288 621.405 458.758 626.758 487.203 625.211C489.168 625.104 497.781 623.543 498.464 624.75C492.23 627.093 479.653 626.473 472.714 626.298C470.496 626.242 467.21 625.877 465.219 626.249C467.036 630.222 464.983 631.847 466.162 634.319C471.765 636.82 500.85 633.903 506.623 631.275L507.157 631.807C504.83 633.527 487.923 636.315 484.513 636.336C451.792 636.534 418.156 628.194 389.177 612.921C385.906 611.198 382.062 609.34 379.522 607.202C382.379 607.818 383.966 608.982 386.472 610.466C388.172 606.743 390.91 605.212 393.233 601.798C391.463 600.547 391.396 600.948 390.927 599.33Z"/><defs><linearGradient id="gradient_15" gradientUnits="userSpaceOnUse" x1="364.86478" y1="634.28717" x2="331.86179" y2="619.31561"><stop offset="0" stop-color="#55586C"/><stop offset="1" stop-color="#9999A2"/></linearGradient></defs><path fill="url(#gradient_15)" d="M316.016 605.754C319.705 601.476 322.819 601.247 328.105 602.912C330.217 604.653 331.828 605.899 333.657 607.976L333.911 607.888L334.706 608.918C345.156 617.496 355.272 626.428 367.422 632.544C371.689 634.691 375.912 636.853 380.235 638.893C375.799 638.173 367.042 633.609 363.275 630.933C363.351 636.091 364.393 638.685 361.305 641.897L361.346 642.814C365.836 646.015 372.592 646.405 376.185 648.38C374.195 648.059 369.539 647.222 367.804 646.496C357.797 642.312 338.877 632.321 330.894 625.403C327.037 622.761 324.298 620.288 321.152 616.895L319.647 615.312C317.449 611.545 316.602 610.071 316.016 605.754Z"/><path fill="#B9B8BD" d="M316.016 605.754C319.705 601.476 322.819 601.247 328.105 602.912C330.217 604.653 331.828 605.899 333.657 607.976C330.911 609.567 322.409 614.24 321.152 616.895L319.647 615.312C317.449 611.545 316.602 610.071 316.016 605.754Z"/><path fill="#95959F" d="M333.657 607.976L333.911 607.888L334.706 608.918C334.755 609.094 335.362 611.278 335.368 611.253C334.435 615.43 333.14 620.199 332.042 624.289L330.894 625.403C327.037 622.761 324.298 620.288 321.152 616.895C322.409 614.24 330.911 609.567 333.657 607.976Z"/><path fill="#95959F" d="M358.459 593.613C360.769 591.682 369.631 587.131 372.571 585.858L372.883 585.947C378.889 590.83 385.273 594.807 390.927 599.33C391.396 600.948 391.463 600.547 393.233 601.798C390.91 605.212 388.172 606.743 386.472 610.466C383.966 608.982 382.379 607.818 379.522 607.202C376.559 606.376 361.934 596.202 358.461 593.856L358.459 593.613Z"/><path fill="#54586B" d="M350.12 587.394L350.43 587.484C352.601 589.405 355.932 592.19 358.459 593.613L358.461 593.856C355.859 595.458 334.497 607.235 333.911 607.888L333.657 607.976C331.828 605.899 330.217 604.653 328.105 602.912C328.093 602.511 328.21 601.523 328.25 601.085C330.86 597.903 345.749 589.807 350.12 587.394Z"/><path fill="#171A27" d="M594.589 567.77C627.299 580.346 653.501 581.389 686.512 567.716C677.246 577.46 637.863 579.904 624.91 577.485C619.913 576.552 597.035 571.452 594.589 567.77Z"/><path fill="#0A0B0E" d="M516.519 684.274C516.629 683.643 516.737 683.516 516.987 682.919C527.647 680.026 538.323 677.065 548.842 673.752C553.658 672.235 575.436 664.231 578.606 665.207C563.996 670.508 531.283 681.313 516.519 684.274Z"/><defs><linearGradient id="gradient_16" gradientUnits="userSpaceOnUse" x1="491.74722" y1="602.04285" x2="484.52295" y2="559.44647"><stop offset="0" stop-color="#DD6A68"/><stop offset="1" stop-color="#FF9B97"/></linearGradient></defs><path fill="url(#gradient_16)" d="M459.888 576.797C460.056 550.948 488.615 541.722 506.382 557.375C511.175 561.518 513.074 566.03 515.035 571.833L515.301 571.345C516.416 575.431 517.491 585.33 513.479 587.747C507.082 596.817 502.827 601.995 491.065 603.258C483.38 604.127 475.673 601.815 469.734 596.86C463.336 591.446 460.531 584.992 459.888 576.797Z"/><path fill="#FF9C98" d="M459.888 576.797C460.056 550.948 488.615 541.722 506.382 557.375C499.026 554.994 484.614 561.673 478.011 564.724C470.829 568.043 465.361 574.14 459.888 576.797Z"/><path fill="#171A27" d="M515.035 571.833L515.301 571.345C516.416 575.431 517.491 585.33 513.479 587.747C514.906 579.927 515.768 580.833 515.035 571.833Z"/><path fill="#B2E7B1" d="M181.95 327.886C200.572 310.226 227.207 300.691 252.754 301.407C279.782 302.049 305.404 313.584 323.804 333.391C328.072 337.971 335.503 347.345 337.796 353.108C349.733 370.684 350.573 396.692 347.815 417.043C344.734 434.315 336.371 450.206 323.879 462.526C304.566 481.743 276.531 491.219 249.604 491.016C223.429 491.029 198.321 480.638 179.811 462.13C162.788 444.78 152.326 420.43 152.48 396.066C152.413 390.335 152.892 384.611 153.911 378.971C156.869 362.553 164.198 347.236 175.125 334.631C177.154 332.297 179.422 329.652 181.95 327.886Z"/><path fill="#8DCB8C" d="M152.48 396.066C153.857 395.866 155.2 397.263 156.649 398.28C157.302 400.08 156.409 401.005 156.779 402.778C163.174 433.443 178.157 459.185 207.757 472.234C257.437 494.133 313.954 475.963 339.586 427.475C341.254 424.321 342.915 416.215 345.834 414.638L347.194 414.801L347.815 417.043C344.734 434.315 336.371 450.206 323.879 462.526C304.566 481.743 276.531 491.219 249.604 491.016C223.429 491.029 198.321 480.638 179.811 462.13C162.788 444.78 152.326 420.43 152.48 396.066Z"/><path fill="#DAFCDC" d="M181.95 327.886C200.572 310.226 227.207 300.691 252.754 301.407C279.782 302.049 305.404 313.584 323.804 333.391C328.072 337.971 335.503 347.345 337.796 353.108L337.561 353.987C335.932 351.17 333.716 348.545 332.211 346.024C326.873 337.081 325.147 334.349 314.714 331.411C315.765 334.037 318.299 335.217 318.231 336.676C309.882 330.381 296.562 319.325 286.917 315.757C250.187 302.168 220.074 308.366 189.471 330.602C191.411 328.622 193.549 326.774 195.617 324.92L195.627 324.274C192.881 324.131 192.916 324.992 189.963 325.393C189.673 324.694 189.445 324.041 189.247 323.315C186.425 324.159 185.84 327.366 181.95 327.886Z"/><path fill="#F8F8F8" d="M238.861 408.552C241.612 404.754 245.921 394.272 247.996 389.566L266.206 347.344C271.229 335.773 276.276 328.619 290.681 334.955C295.454 337.055 297.611 341.548 299.19 346.27L299.738 346.002C300.705 353.413 286.728 382.572 283.068 391.343C277.621 404.601 272.094 417.826 266.489 431.017C265.174 434.027 262.622 440.606 260.897 442.982C255.599 449.584 249.086 451.986 241.145 448.427C229.045 443.004 218.038 435.1 206.177 429.331C194.739 423.768 187.163 417.526 195.292 404.441C195.507 404.096 195.745 404.145 196.113 404.082C200.281 397.545 200.388 395.881 207.877 393.91C216.784 396.17 230.262 404.026 238.861 408.552Z"/><path fill="#8DCB8C" d="M299.19 346.27L299.738 346.002C300.705 353.413 286.728 382.572 283.068 391.343C277.621 404.601 272.094 417.826 266.489 431.017C265.174 434.027 262.622 440.606 260.897 442.982C255.599 449.584 249.086 451.986 241.145 448.427C229.045 443.004 218.038 435.1 206.177 429.331C194.739 423.768 187.163 417.526 195.292 404.441C195.507 404.096 195.745 404.145 196.113 404.082C195.158 406.164 194.089 408.355 193.494 410.571C192.732 413.406 192.709 417.319 194.422 419.854C197.614 424.579 241.089 448.153 247.161 448.88C250.186 449.242 254.588 447.77 256.889 445.805C258.695 444.261 260.041 441.715 261.114 439.616C269.291 423.622 275.655 406.328 282.561 389.742C287.16 378.697 292.567 367.913 296.634 356.654C297.879 353.208 298.903 349.94 299.19 346.27Z"/><defs><linearGradient id="gradient_17" gradientUnits="userSpaceOnUse" x1="524.40839" y1="374.98679" x2="534.51178" y2="203.67632"><stop offset="0" stop-color="#FFD361"/><stop offset="1" stop-color="#FFFFB6"/></linearGradient></defs><path fill="url(#gradient_17)" d="M429.914 343.808C425.15 330.998 438.462 315.718 445.504 305.808C455.595 291.61 465.939 277.594 476.53 263.766L497.738 235.766C507.83 222.489 525.179 194.726 545.061 204.839C553.32 209.04 560.224 225.903 564.612 234.288L589.662 282.987L608.997 320.921C615.004 332.574 628.698 352.69 621.71 366.101C621.389 366.717 620.898 367.668 620.322 368.057C614.643 378.767 596.25 380.972 585.424 380.072C542.019 376.457 498.526 368.911 455.814 360.469C445.234 358.378 433.828 354.893 429.914 343.808Z"/><path fill="#FFD76F" d="M429.914 343.808C430.911 344.735 431.299 345.127 432.039 346.336C438.142 356.305 449.162 357.785 459.642 360.191C474.928 363.064 495.844 368.03 511.339 368.59L509.622 369.403C511.161 369.346 514.94 369.97 516.643 370.249C536.215 373.455 555.511 376.167 575.283 377.782C582.311 378.356 590.03 376.736 597.094 376.501C604.419 376.293 608.993 377.362 614.842 372.242C615.934 371.286 619.166 368.463 620.322 368.057C614.643 378.767 596.25 380.972 585.424 380.072C542.019 376.457 498.526 368.911 455.814 360.469C445.234 358.378 433.828 354.893 429.914 343.808Z"/><path fill="#F8F8F8" d="M521.191 247.082C524.836 238.444 531.944 234.551 541.09 238.401C548.62 241.57 547.469 248.926 549.897 253.503C554.735 254.712 549.571 287.515 548.017 293.143C546.091 301.893 543.44 310.617 534.676 314.966C525.204 319.666 517.788 303.865 518.169 297.074C518.799 285.829 516.218 256.887 520.083 247.539L521.191 247.082Z"/><path fill="#FFD76F" d="M549.897 253.503C554.735 254.712 549.571 287.515 548.017 293.143C546.091 301.893 543.44 310.617 534.676 314.966C525.204 319.666 517.788 303.865 518.169 297.074C518.799 285.829 516.218 256.887 520.083 247.539L521.191 247.082C518.754 257.522 512.624 327.225 537.347 311.963C549.302 304.582 550.696 266.542 549.897 253.503Z"/><path fill="#F8F8F8" d="M530.946 322.779C533.381 321.384 535.381 321.584 536.532 324.234C540.314 327.22 541.187 327.765 543.132 332.328L543.769 332.453C545.244 360.219 509.825 346.22 516.229 335.527C516.521 334.83 516.431 335.13 516.596 334.371C518.418 325.999 522.565 322.433 530.946 322.779Z"/><path fill="#FFD76F" d="M543.132 332.328L543.769 332.453C545.244 360.219 509.825 346.22 516.229 335.527C517.555 342.279 521.849 347.166 529.048 347.608C532.584 347.841 536.063 346.624 538.682 344.237C542.61 340.647 543.011 337.163 543.132 332.328Z"/><path fill="#FFD76F" d="M530.946 322.779C533.381 321.384 535.381 321.584 536.532 324.234C535.096 323.674 532.517 323.15 530.946 322.779Z"/><path fill="#54586B" d="M861.389 239.142C872.244 235.17 885.097 234.79 895.773 239.605C909.974 246.01 916.22 259.698 921.3 273.57C921.653 274.534 921.994 275.502 922.324 276.474C925.372 289.219 924.156 300.201 917.126 311.547C916.507 312.538 915.86 313.512 915.187 314.468C905.041 328.829 885.35 340.373 872.299 351.396C849.949 370.273 830.145 395.504 811.51 418.034C808.834 421.269 798.519 433.838 796.859 436.885C791.271 432.888 785.505 429.147 779.577 425.673C777.426 424.475 775.839 423.69 773.591 422.682C771.312 422.827 761.289 418.41 759.513 416.807C746.115 409.604 723.038 410.328 708.35 410.858C707.726 410.537 703.693 407.483 702.87 406.879C703.6 405.86 703.734 405.827 704.664 404.951C705.95 402.944 720.758 384.541 722.327 382.959C726.379 377.124 735.418 366.591 740.143 360.954C744.196 355.359 752.932 345.635 757.71 340.042C766.821 329.377 776.32 317.863 785.747 307.553L787.123 305.959C792.971 298.734 800.936 289.679 807.251 282.921C809.345 279.614 823.233 265.781 826.44 263.121C830.942 256.255 852.375 241.686 861.389 239.142Z"/><path fill="#171A27" d="M861.389 239.142C872.244 235.17 885.097 234.79 895.773 239.605C909.974 246.01 916.22 259.698 921.3 273.57C921.653 274.534 921.994 275.502 922.324 276.474C925.372 289.219 924.156 300.201 917.126 311.547C916.507 312.538 915.86 313.512 915.187 314.468C905.041 328.829 885.35 340.373 872.299 351.396C849.949 370.273 830.145 395.504 811.51 418.034C808.834 421.269 798.519 433.838 796.859 436.885C791.271 432.888 785.505 429.147 779.577 425.673L781.286 425.164C782.668 425.742 782.631 425.85 784.09 425.734C785.957 423.636 786.91 418.319 787.539 415.475C785.979 411.142 785.899 408.305 782.92 404.196C780.97 401.424 778.932 399.145 775.853 397.701L774.391 396.384L775.383 395.448L774.807 394.964C775.448 393.457 775.529 393.176 775.566 391.542L776.221 391.448L775.649 391.351L775.856 391.219L778.409 392.488C780.716 388.729 787.966 381.042 791.147 376.635C797.283 367.577 805.911 360.27 812.812 352.139C834.191 326.95 860.374 307.451 885.283 286.06C894.453 278.185 902.012 268.11 911.617 261.18C913.992 259.467 914.129 264.487 916.115 265.424C909.321 246.15 894.018 234.274 873.228 237.752C869.66 238.348 864.972 239.029 861.389 239.142Z"/><defs><linearGradient id="gradient_18" gradientUnits="userSpaceOnUse" x1="869.78131" y1="378.32141" x2="842.6098" y2="342.9509"><stop offset="0" stop-color="#0B0E1B"/><stop offset="1" stop-color="#373A4F"/></linearGradient></defs><path fill="url(#gradient_18)" d="M922.324 276.474C925.372 289.219 924.156 300.201 917.126 311.547C916.507 312.538 915.86 313.512 915.187 314.468C905.041 328.829 885.35 340.373 872.299 351.396C849.949 370.273 830.145 395.504 811.51 418.034C808.834 421.269 798.519 433.838 796.859 436.885C791.271 432.888 785.505 429.147 779.577 425.673L781.286 425.164C782.668 425.742 782.631 425.85 784.09 425.734C785.957 423.636 786.91 418.319 787.539 415.475C789.37 413.274 784.64 406.918 784.242 404.366C783.947 402.47 784.379 402.683 785.502 401L787.251 399.789L788.458 400.083C792.913 404.182 794.467 413.278 795.816 419.196C796.404 417.872 796.196 416.243 796.184 414.689C807.424 401.893 817.505 387.423 829.159 374.791C833.852 369.703 837.711 363.263 842.791 358.376C855.308 346.332 866.173 332.875 879.642 321.818C891.467 311.706 903.348 302.128 914.448 291.248C918.039 287.729 918.691 284.574 921.137 281.938L922.002 282.985C921.727 280.251 921.377 279.057 922.324 276.474Z"/><path fill="#0A0B0E" d="M922.324 276.474C925.372 289.219 924.156 300.201 917.126 311.547C916.507 312.538 915.86 313.512 915.187 314.468C915.22 314.217 915.413 312.885 915.406 312.586C915.283 307.51 919.233 301.759 920.659 296.457C922.257 290.512 922.063 289.144 922.002 282.985C921.727 280.251 921.377 279.057 922.324 276.474Z"/><path fill="#35384A" d="M778.409 392.488C780.716 388.729 787.966 381.042 791.147 376.635C797.283 367.577 805.911 360.27 812.812 352.139C834.191 326.95 860.374 307.451 885.283 286.06C894.453 278.185 902.012 268.11 911.617 261.18C913.992 259.467 914.129 264.487 916.115 265.424C916.866 267.002 917.58 268.061 917.525 269.785C914.469 275.651 890.243 295.536 882.567 302.308C857.606 324.331 832.576 348.21 810.476 373.434C807.736 376.561 788.595 397.937 787.388 398.359L786.903 398.233C784.56 396.071 781.146 394.085 778.409 392.488Z"/><defs><linearGradient id="gradient_19" gradientUnits="userSpaceOnUse" x1="705.19818" y1="398.65021" x2="773.4176" y2="405.13086"><stop offset="0" stop-color="#CAC9CA"/><stop offset="1" stop-color="#F5F5F7"/></linearGradient></defs><path fill="url(#gradient_19)" d="M704.664 404.951C706.609 403.744 708.456 401.732 710.324 400.331C728.501 386.699 754.632 386.941 774.391 396.384L775.853 397.701C778.932 399.145 780.97 401.424 782.92 404.196C785.899 408.305 785.979 411.142 787.539 415.475C786.91 418.319 785.957 423.636 784.09 425.734C782.631 425.85 782.668 425.742 781.286 425.164L779.577 425.673C777.426 424.475 775.839 423.69 773.591 422.682C771.312 422.827 761.289 418.41 759.513 416.807C746.115 409.604 723.038 410.328 708.35 410.858C707.726 410.537 703.693 407.483 702.87 406.879C703.6 405.86 703.734 405.827 704.664 404.951Z"/><path fill="#B9B8BD" d="M775.853 397.701C778.932 399.145 780.97 401.424 782.92 404.196C785.899 408.305 785.979 411.142 787.539 415.475C786.91 418.319 785.957 423.636 784.09 425.734C782.631 425.85 782.668 425.742 781.286 425.164L779.577 425.673C777.426 424.475 775.839 423.69 773.591 422.682C771.312 422.827 761.289 418.41 759.513 416.807C760.907 417.299 761.794 417.776 763.247 417.568C766.153 414.116 774.323 401.746 775.853 397.701Z"/><path fill="#35384A" d="M782.92 404.196C785.899 408.305 785.979 411.142 787.539 415.475C786.91 418.319 785.957 423.636 784.09 425.734C782.631 425.85 782.668 425.742 781.286 425.164L779.577 425.673C777.426 424.475 775.839 423.69 773.591 422.682C772.444 421.704 772.773 422.317 772.319 420.987C773.521 416.173 779.864 408.195 782.92 404.196Z"/><path fill="#35384A" d="M785.747 307.553C785.094 311.111 784.152 311.84 781.904 314.583C775.611 322.259 770.939 330.858 763.917 338.012C757.374 344.676 748.948 357.289 740.143 360.954C744.196 355.359 752.932 345.635 757.71 340.042C766.821 329.377 776.32 317.863 785.747 307.553Z"/><path fill="#0A0B0E" d="M704.664 404.951C705.95 402.944 720.758 384.541 722.327 382.959C722.553 386.358 717.058 392.124 714.612 395.56C733.467 386.135 755.915 385.011 774.807 394.964L775.383 395.448L774.391 396.384C754.632 386.941 728.501 386.699 710.324 400.331C708.456 401.732 706.609 403.744 704.664 404.951Z"/><path fill="#35384A" d="M787.123 305.959C792.971 298.734 800.936 289.679 807.251 282.921L807.08 287.411C803.013 292.761 793.678 303.619 787.123 305.959Z"/><path fill="#35384A" d="M826.44 263.121C825.375 266.611 819.986 270.479 817.714 273.672C814.292 278.481 811.002 282.971 807.08 287.411L807.251 282.921C809.345 279.614 823.233 265.781 826.44 263.121Z"/><path fill="#171A27" d="M872.825 252.209C876.424 251.324 880.216 252.41 883.474 253.915L884.217 254.261L885.479 252.552C886.875 256.993 880.116 263.251 877.302 266.138C869.101 274.553 860.218 281.303 848.868 284.742C812.395 293.397 847.925 253.198 872.825 252.209Z"/><defs><linearGradient id="gradient_20" gradientUnits="userSpaceOnUse" x1="371.28445" y1="298.95404" x2="377.1821" y2="142.93129"><stop offset="0" stop-color="#7FA5FD"/><stop offset="1" stop-color="#B0D3FF"/></linearGradient></defs><path fill="url(#gradient_20)" d="M361.66 142.3C405.181 135.515 446.019 165.124 453.101 208.597C460.182 252.07 430.851 293.11 387.427 300.487C343.584 307.935 302.06 278.258 294.91 234.365C287.76 190.471 317.719 149.151 361.66 142.3Z"/><path fill="#F8F8F8" d="M348.411 211.349C353.556 207.898 374.549 202.731 381.521 202.396C384.549 202.251 385.778 209.684 386.848 211.471L387.783 211.885C389.644 218.237 393.473 241.468 396.047 244.427C397.442 245.079 397.387 245.081 398.905 245.286C408.099 244.708 404.827 249.449 407.519 253.386L408.271 253.011C408.942 256.245 407.635 260.859 404.12 261.949C392.885 265.432 381.773 270.391 370.282 272.744C363.662 274.099 360.532 267.912 360.573 262.243L360.939 261.925L360.961 261.467C361.44 263.041 361.456 263.586 361.606 265.179C362.048 258.624 361.512 257.769 367.534 254.554C366.176 249.179 362.036 229.87 360.307 226.331C356.887 223.952 353.849 226.768 352.2 223.154L351.772 222.687C351.514 222.858 351.738 222.741 350.767 223.044C347.664 220.822 346.312 214.993 347.698 211.635L348.411 211.349Z"/><path fill="#4980F4" d="M407.519 253.386L408.271 253.011C408.942 256.245 407.635 260.859 404.12 261.949C392.885 265.432 381.773 270.391 370.282 272.744C363.662 274.099 360.532 267.912 360.573 262.243L360.939 261.925L360.961 261.467C361.44 263.041 361.456 263.586 361.606 265.179C361.923 266.11 362.519 267.636 362.961 268.485C363.804 270.098 365.338 271.238 367.126 271.579C371.689 272.48 400.367 262.331 405.574 259.2C407.107 258.278 407.326 255.219 407.519 253.386Z"/><path fill="#4980F4" d="M352.2 223.154C355.176 224.251 357.762 224.047 360.954 224.102C362.518 228.289 368.773 251.743 367.534 254.554C366.176 249.179 362.036 229.87 360.307 226.331C356.887 223.952 353.849 226.768 352.2 223.154Z"/><path fill="#4980F4" d="M386.848 211.471L387.783 211.885C389.644 218.237 393.473 241.468 396.047 244.427C397.442 245.079 397.387 245.081 398.905 245.286C397.274 245.605 396.955 245.724 395.259 245.688C393.098 243.77 387.969 216.84 386.848 211.471Z"/><path fill="#4980F4" d="M351.772 222.687C351.514 222.858 351.738 222.741 350.767 223.044C347.664 220.822 346.312 214.993 347.698 211.635L348.411 211.349C348.293 216.551 348.242 218.87 351.772 222.687Z"/><path fill="#F8F8F8" d="M346.324 188.011C343.391 180.92 346.109 172.751 352.706 168.832C359.304 164.913 367.778 166.433 372.601 172.401C377.425 178.37 377.134 186.974 371.918 192.603C372.261 193.018 372.121 192.737 372.047 193.537C370.463 195.055 369.196 195.808 367.15 196.711C363.19 198.431 358.708 198.5 354.697 196.902C351.08 195.445 347.066 191.819 345.61 188.222L346.324 188.011Z"/><path fill="#4980F4" d="M371.918 192.603C372.261 193.018 372.121 192.737 372.047 193.537C370.463 195.055 369.196 195.808 367.15 196.711C363.19 198.431 358.708 198.5 354.697 196.902C351.08 195.445 347.066 191.819 345.61 188.222L346.324 188.011C348.336 192.873 352.686 196.376 357.865 197.305C363.045 198.235 368.341 196.462 371.918 192.603Z"/><path fill="#F8F8F8" fill-opacity="0.80000001" d="M114.578 433.683C128.833 434.679 131.104 440.32 140.007 449.993C150.584 461.483 158.638 474.57 169.363 485.891C183.882 501.217 200.212 514.725 217.514 526.794C222.427 530.233 228.006 533.219 232.667 536.713L233.128 537.065C232.995 537.658 232.524 539.561 232.148 539.9C228.352 543.326 221.835 549.811 217.415 551.828C216.674 551.245 216.915 551.632 216.763 550.625C214.73 551.524 214.392 551.328 212.235 550.403L211.995 551.059C175.923 535.349 134.712 498.001 113.974 464.603C110.057 458.296 104.671 446.565 106.345 438.879C106.943 436.132 111.856 434.883 114.578 433.683Z"/><defs><linearGradient id="gradient_21" gradientUnits="userSpaceOnUse" x1="383.93448" y1="392.6048" x2="411.78946" y2="365.15985"><stop offset="0" stop-color="#FFD76B"/><stop offset="1" stop-color="#FFFFBE"/></linearGradient></defs><path fill="url(#gradient_21)" d="M383.167 338.934C391.647 335.377 394.424 345.891 395.946 352.073C401.346 372.425 406.384 392.91 412.667 413.082C413.289 415.081 413.538 418.876 412.782 420.836L411.931 421.145C396.728 415.934 374.008 355.45 383.167 338.934Z"/><path fill="#FEFBBD" d="M383.167 338.934C391.647 335.377 394.424 345.891 395.946 352.073L395.445 352.982C392.233 353.108 386.682 343.175 387.085 340.15C385.568 338.891 385.494 339.265 383.167 338.934Z"/><defs><linearGradient id="gradient_22" gradientUnits="userSpaceOnUse" x1="641.08972" y1="258.94937" x2="646.15369" y2="229.76639"><stop offset="0" stop-color="#FFD36B"/><stop offset="1" stop-color="#FFFBAB"/></linearGradient></defs><path fill="url(#gradient_22)" d="M638.727 229.515C647.794 226.827 657.317 232.028 659.957 241.109C662.597 250.19 657.346 259.686 648.251 262.277C639.224 264.849 629.815 259.646 627.195 250.633C624.575 241.62 629.728 232.183 638.727 229.515Z"/><defs><linearGradient id="gradient_23" gradientUnits="userSpaceOnUse" x1="233.0941" y1="258.25031" x2="238.56596" y2="229.82022"><stop offset="0" stop-color="#FFD56B"/><stop offset="1" stop-color="#FFF9A3"/></linearGradient></defs><path fill="url(#gradient_23)" d="M221.32 255.041C216.523 247.511 218.37 237.554 225.549 232.247C232.728 226.94 242.79 228.093 248.581 234.887C254.373 241.681 253.919 251.799 247.542 258.047C243.884 261.632 238.804 263.375 233.715 262.792C228.626 262.208 224.072 259.361 221.32 255.041Z"/><path fill="#FFD76F" d="M221.32 255.041C224.033 257.355 224.269 256.658 227.566 257.24C232.582 258.126 242.944 259.743 247.542 258.047C243.884 261.632 238.804 263.375 233.715 262.792C228.626 262.208 224.072 259.361 221.32 255.041Z"/><defs><linearGradient id="gradient_24" gradientUnits="userSpaceOnUse" x1="455.06592" y1="411.73874" x2="459.42621" y2="387.80438"><stop offset="0" stop-color="#87A8FA"/><stop offset="1" stop-color="#C9E3FF"/></linearGradient></defs><path fill="url(#gradient_24)" d="M456.635 386.523C463.982 386.021 470.367 391.523 470.954 398.865C471.541 406.206 466.112 412.653 458.778 413.325C453.958 413.766 449.273 411.583 446.511 407.608C443.749 403.633 443.337 398.48 445.432 394.117C447.527 389.754 451.806 386.853 456.635 386.523Z"/></svg>